<svg width="39" height="38" viewBox="0 0 39 38" fill="none" xmlns="http://www.w3.org/2000/svg">
<path d="M37.467 9.59268L12.1321 0.257512C11.7588 0.119966 11.3462 0.136341 10.985 0.303037C10.6238 0.469732 10.3436 0.773093 10.206 1.14638L0.870847 26.4812C0.7333 26.8545 0.749676 27.2672 0.916371 27.6284C1.08307 27.9896 1.38643 28.2698 1.75972 28.4073L27.0946 37.7425C27.4679 37.8801 27.8805 37.8637 28.2417 37.697C28.6029 37.5303 28.8831 37.2269 29.0207 36.8536L38.3559 11.5188C38.4934 11.1455 38.477 10.7329 38.3103 10.3716C38.1436 10.0104 37.8403 9.73023 37.467 9.59268ZM26.7243 34.4089L4.20445 26.111L12.5024 3.59112L35.0222 11.889L26.7243 34.4089Z" fill="#0285E4"/>
</svg>
